HIERARCHY
ROOT Hips
{
	OFFSET 0.000000 103.266502 0.000000
	CHANNELS 6 Xposition Yposition Zposition Xrotation Yrotation Zrotation 
	JOINT Spine
	{
		OFFSET -0.002400 12.777504 0.315300
		CHANNELS 3 Xrotation Yrotation Zrotation
		JOINT Spine1
		{
			OFFSET -0.002067 5.816869 0.032633
			CHANNELS 3 Xrotation Yrotation Zrotation
			JOINT Spine1_split
			{
				OFFSET -0.002067 5.816869 0.032633
				CHANNELS 3 Xrotation Yrotation Zrotation
				JOINT Spine2
				{
					OFFSET -0.002067 5.816869 0.032633
					CHANNELS 3 Xrotation Yrotation Zrotation
					JOINT Neck
					{
						OFFSET -0.003700 21.199493 -0.826900
						CHANNELS 3 Xrotation Yrotation Zrotation
						JOINT Head
						{
							OFFSET 0.000000 20.442200 4.834800
							CHANNELS 3 Xrotation Yrotation Zrotation
							JOINT HeadTop_End
							{
								OFFSET 0.000000 34.668396 4.968400
								CHANNELS 3 Xrotation Yrotation Zrotation
								End Site
								{
									OFFSET 0.000000 0.000000 0.000000
								}
							}
						}
					}
					JOINT LeftShoulder
					{
						OFFSET 3.288150 8.794197 -1.372250
						CHANNELS 3 Xrotation Yrotation Zrotation
						JOINT LeftShoulder_split
						{
							OFFSET 3.288150 8.794197 -1.372250
							CHANNELS 3 Xrotation Yrotation Zrotation
							JOINT LeftArm
							{
								OFFSET 11.953299 -2.279007 -0.146200
								CHANNELS 3 Xrotation Yrotation Zrotation
								JOINT LeftForeArm
								{
									OFFSET 18.448900 0.000000 0.000000
									CHANNELS 3 Xrotation Yrotation Zrotation
									JOINT LeftHand
									{
										OFFSET 29.527798 0.000000 0.000000
										CHANNELS 3 Xrotation Yrotation Zrotation
										JOINT LeftHandThumb1
										{
											OFFSET 10.739754 -2.369614 9.225399
											CHANNELS 3 Xrotation Yrotation Zrotation
											JOINT LeftHandThumb2
											{
												OFFSET 4.926170 -2.844131 2.844125
												CHANNELS 3 Xrotation Yrotation Zrotation
												JOINT LeftHandThumb3
												{
													OFFSET 4.614891 -2.664413 2.664409
													CHANNELS 3 Xrotation Yrotation Zrotation
													JOINT LeftHandThumb4
													{
														OFFSET 4.432465 -2.559082 2.559083
														CHANNELS 3 Xrotation Yrotation Zrotation
														End Site
														{
															OFFSET 0.000000 0.000000 0.000000
														}
													}
												}
											}
										}
										JOINT LeftHandIndex1
										{
											OFFSET 26.467674 0.187653 6.405298
											CHANNELS 3 Xrotation Yrotation Zrotation
											JOINT LeftHandIndex2
											{
												OFFSET 8.792900 0.000000 0.000000
												CHANNELS 3 Xrotation Yrotation Zrotation
												JOINT LeftHandIndex3
												{
													OFFSET 10.075203 0.000000 0.000000
													CHANNELS 3 Xrotation Yrotation Zrotation
													End Site
													{
														OFFSET 0.000000 0.000000 0.000000
													}
												}
											}
										}
										JOINT LeftHandMiddle1
										{
											OFFSET 25.764404 0.000000 0.000000
											CHANNELS 3 Xrotation Yrotation Zrotation
											JOINT LeftHandMiddle2
											{
												OFFSET 9.393974 0.000000 0.000000
												CHANNELS 3 Xrotation Yrotation Zrotation
												JOINT LeftHandMiddle3
												{
													OFFSET 10.771950 0.000000 0.000000
													CHANNELS 3 Xrotation Yrotation Zrotation
													End Site
													{
														OFFSET 0.000000 0.000000 0.000000
													}
												}
											}
										}
										JOINT LeftHandRing1
										{
											OFFSET 24.660927 0.144547 -6.225808
											CHANNELS 3 Xrotation Yrotation Zrotation
											JOINT LeftHandRing2
											{
												OFFSET 9.393799 0.000000 0.000000
												CHANNELS 3 Xrotation Yrotation Zrotation
												JOINT LeftHandRing3
												{
													OFFSET 9.928497 0.000000 0.000000
													CHANNELS 3 Xrotation Yrotation Zrotation
													End Site
													{
														OFFSET 0.000000 0.000000 0.000000
													}
												}
											}
										}
										JOINT LeftHandPinky1
										{
											OFFSET 23.655350 0.125290 -12.815412
											CHANNELS 3 Xrotation Yrotation Zrotation
											JOINT LeftHandPinky2
											{
												OFFSET 8.425102 0.000000 0.000000
												CHANNELS 3 Xrotation Yrotation Zrotation
												JOINT LeftHandPinky3
												{
													OFFSET 8.147003 0.000000 0.000000
													CHANNELS 3 Xrotation Yrotation Zrotation
													End Site
													{
														OFFSET 0.000000 0.000000 0.000000
													}
												}
											}
										}
									}
								}
							}
						}
					}
					JOINT RightShoulder
					{
						OFFSET -3.249400 8.794197 -1.372250
						CHANNELS 3 Xrotation Yrotation Zrotation
						JOINT RightShoulder_split
						{
							OFFSET -3.249400 8.794197 -1.372250
							CHANNELS 3 Xrotation Yrotation Zrotation
							JOINT RightArm
							{
								OFFSET -11.953299 -2.279007 -0.146200
								CHANNELS 3 Xrotation Yrotation Zrotation
								JOINT RightForeArm
								{
									OFFSET -18.448900 0.000000 0.000000
									CHANNELS 3 Xrotation Yrotation Zrotation
									JOINT RightHand
									{
										OFFSET -29.527802 0.000000 0.000000
										CHANNELS 3 Xrotation Yrotation Zrotation
										JOINT RightHandThumb1
										{
											OFFSET -10.739754 -2.369614 9.225399
											CHANNELS 3 Xrotation Yrotation Zrotation
											JOINT RightHandThumb2
											{
												OFFSET -4.926170 -2.844131 2.844125
												CHANNELS 3 Xrotation Yrotation Zrotation
												JOINT RightHandThumb3
												{
													OFFSET -4.614891 -2.664413 2.664409
													CHANNELS 3 Xrotation Yrotation Zrotation
													JOINT RightHandThumb4
													{
														OFFSET -4.432465 -2.559082 2.559083
														CHANNELS 3 Xrotation Yrotation Zrotation
														End Site
														{
															OFFSET 0.000000 0.000000 0.000000
														}
													}
												}
											}
										}
										JOINT RightHandIndex1
										{
											OFFSET -26.467674 0.187653 6.405298
											CHANNELS 3 Xrotation Yrotation Zrotation
											JOINT RightHandIndex2
											{
												OFFSET -8.792900 0.000000 0.000000
												CHANNELS 3 Xrotation Yrotation Zrotation
												JOINT RightHandIndex3
												{
													OFFSET -10.075203 0.000000 0.000000
													CHANNELS 3 Xrotation Yrotation Zrotation
													End Site
													{
														OFFSET 0.000000 0.000000 0.000000
													}
												}
											}
										}
										JOINT RightHandMiddle1
										{
											OFFSET -25.764404 0.000000 0.000000
											CHANNELS 3 Xrotation Yrotation Zrotation
											JOINT RightHandMiddle2
											{
												OFFSET -9.393974 0.000000 0.000000
												CHANNELS 3 Xrotation Yrotation Zrotation
												JOINT RightHandMiddle3
												{
													OFFSET -10.771950 0.000000 0.000000
													CHANNELS 3 Xrotation Yrotation Zrotation
													End Site
													{
														OFFSET 0.000000 0.000000 0.000000
													}
												}
											}
										}
										JOINT RightHandRing1
										{
											OFFSET -24.660927 0.144547 -6.225808
											CHANNELS 3 Xrotation Yrotation Zrotation
											JOINT RightHandRing2
											{
												OFFSET -9.393799 0.000000 0.000000
												CHANNELS 3 Xrotation Yrotation Zrotation
												JOINT RightHandRing3
												{
													OFFSET -9.928497 0.000000 0.000000
													CHANNELS 3 Xrotation Yrotation Zrotation
													End Site
													{
														OFFSET 0.000000 0.000000 0.000000
													}
												}
											}
										}
										JOINT RightHandPinky1
										{
											OFFSET -23.655350 0.125290 -12.815412
											CHANNELS 3 Xrotation Yrotation Zrotation
											JOINT RightHandPinky2
											{
												OFFSET -8.425102 0.000000 0.000000
												CHANNELS 3 Xrotation Yrotation Zrotation
												JOINT RightHandPinky3
												{
													OFFSET -8.147003 0.000000 0.000000
													CHANNELS 3 Xrotation Yrotation Zrotation
													End Site
													{
														OFFSET 0.000000 0.000000 0.000000
													}
												}
											}
										}
									}
								}
							}
						}
					}
				}
			}
		}
	}
	JOINT LeftUpLeg
	{
		OFFSET 11.394100 -6.187798 -0.413800
		CHANNELS 3 Xrotation Yrotation Zrotation
		JOINT LeftLeg
		{
			OFFSET 0.430247 -32.302673 3.732800
			CHANNELS 3 Xrotation Yrotation Zrotation
			JOINT LeftFoot
			{
				OFFSET -0.430247 -48.264931 -6.423300
				CHANNELS 3 Xrotation Yrotation Zrotation
				JOINT LeftToeBase
				{
					OFFSET 4.230900 -16.068199 23.438400
					CHANNELS 3 Xrotation Yrotation Zrotation
					JOINT LeftToe_End
					{
						OFFSET 4.510700 0.695400 19.974600
						CHANNELS 3 Xrotation Yrotation Zrotation
						End Site
						{
							OFFSET 0.000000 0.000000 0.000000
						}
					}
				}
			}
		}
	}
	JOINT RightUpLeg
	{
		OFFSET -11.333700 -6.187798 -0.413800
		CHANNELS 3 Xrotation Yrotation Zrotation
		JOINT RightLeg
		{
			OFFSET -0.430392 -32.302628 3.733000
			CHANNELS 3 Xrotation Yrotation Zrotation
			JOINT RightFoot
			{
				OFFSET 0.430392 -48.264973 -6.423500
				CHANNELS 3 Xrotation Yrotation Zrotation
				JOINT RightToeBase
				{
					OFFSET -4.230900 -16.068199 23.438400
					CHANNELS 3 Xrotation Yrotation Zrotation
					JOINT RightToe_End
					{
						OFFSET -4.510700 0.695400 19.974600
						CHANNELS 3 Xrotation Yrotation Zrotation
						End Site
						{
							OFFSET 0.000000 0.000000 0.000000
						}
					}
				}
			}
		}
	}
}
MOTION
Frames: 4
Frame Time: 0.016667
2.620995 88.869385 -2.646835 21.261610 -4.572373 -27.534748 9.663148 1.943265 -16.238363 6.445043 2.740807 -10.688255 0.000000 0.000000 0.000000 6.249398 2.693597 -10.811388 -0.796412 4.356711 -3.690190 -8.154882 18.426609 -3.530661 0.000000 -0.000001 -0.000000 0.763378 -2.243203 16.026737 0.000000 0.000000 0.000000 -56.139606 -44.766638 -98.210013 -0.000017 -55.603870 -0.000017 -74.109690 -27.707917 14.239160 35.234555 -17.219580 -17.236892 29.406847 28.726533 -29.411799 9.113610 14.378713 -9.922564 -0.000004 0.000002 0.000000 0.797694 3.221915 -27.804752 0.799619 3.225514 -27.838613 0.000002 -0.000000 0.000001 0.796793 3.220213 -27.788715 0.800513 3.227223 -27.854654 -0.000001 0.000000 -0.000001 0.797694 3.221915 -27.804749 0.799621 3.225514 -27.838618 0.000001 -0.000001 0.000004 2.684966 6.814116 -27.459490 0.809070 -0.835574 -28.291876 -0.000001 0.000000 0.000001 -0.201843 -4.974896 1.334821 0.000000 0.000000 0.000000 -165.753269 118.380183 181.246815 -0.000028 71.160162 0.000026 -23.198495 1.097493 -16.760430 40.606632 -3.110551 26.124241 -37.849507 -44.264994 -46.874967 -12.282870 -22.415214 -17.633351 -0.000001 0.000001 0.000001 3.635319 -6.111013 61.464504 7.728619 -6.904479 96.464449 0.000002 -0.000001 0.000001 3.635324 -6.111005 61.464504 7.728621 -6.904470 96.464449 -0.000001 0.000001 -0.000002 3.635318 -6.111009 61.464497 7.728620 -6.904480 96.464449 0.000000 -0.000001 0.000003 3.635321 -6.111016 61.464497 7.728620 -6.904479 96.464449 -0.000001 -0.000001 -0.000002 -81.754919 -10.067931 23.448173 63.240640 -8.325031 10.031897 -6.812747 -3.163944 -3.028212 -0.000036 0.000006 0.000002 -0.000000 0.000000 -0.000000 -39.243559 -32.565382 8.323653 38.996009 -10.977815 0.812718 -9.501610 -7.965225 9.066336 -0.050682 -0.000022 -0.000004 -0.000000 -0.000002 -0.000000 
2.648487 88.932846 -2.671543 21.058904 -4.839582 -27.172705 9.724070 1.909386 -16.152988 6.493356 2.713994 -10.616011 0.000000 0.000000 0.000000 6.300767 2.667747 -10.739130 0.207069 4.314705 -3.404717 -7.207428 18.522100 -2.767386 0.000000 0.000001 0.000001 0.722160 -2.099712 15.969390 0.000000 0.000000 0.000000 -55.551448 -45.310823 -97.712597 -0.000012 -55.602992 -0.000007 -74.614762 -26.963261 14.427171 35.234555 -17.219580 -17.236892 29.406847 28.726529 -29.411795 9.113608 14.378720 -9.922566 0.000002 0.000002 0.000001 0.797693 3.221915 -27.804747 0.799620 3.225514 -27.838618 0.000000 0.000001 -0.000003 0.796792 3.220213 -27.788712 0.800508 3.227223 -27.854650 -0.000001 0.000000 -0.000001 0.797696 3.221914 -27.804749 0.799620 3.225514 -27.838618 0.000001 -0.000000 0.000000 2.684966 6.814117 -27.459488 0.809071 -0.835574 -28.291876 0.000001 0.000001 -0.000002 -0.173800 -4.568114 0.662833 0.000000 0.000000 0.000000 -166.330474 118.064587 182.610053 0.000037 70.533929 -0.000061 -24.020027 1.292612 -16.773077 40.606632 -3.110552 26.124241 -37.849507 -44.264994 -46.874960 -12.282872 -22.415212 -17.633351 -0.000000 -0.000001 -0.000001 3.635320 -6.111013 61.464504 7.728618 -6.904476 96.464449 -0.000000 0.000001 -0.000001 3.635325 -6.111004 61.464510 7.728620 -6.904474 96.464449 -0.000001 -0.000001 0.000002 3.635317 -6.111009 61.464497 7.728620 -6.904476 96.464449 0.000004 0.000002 -0.000000 3.635322 -6.111014 61.464497 7.728617 -6.904479 96.464449 -0.000001 -0.000002 -0.000001 -81.503992 -9.534194 23.712723 63.130667 -8.366771 10.033749 -6.857177 -3.103332 -2.958331 -0.000006 0.000000 -0.000004 0.000000 0.000001 -0.000000 -39.306496 -32.197812 8.088142 38.988260 -10.955760 0.888627 -9.427463 -7.824839 9.000787 -0.049239 -0.000005 0.000005 -0.000000 0.000000 -0.000000 
2.657272 88.992851 -2.691658 20.826864 -5.162885 -26.829086 9.771868 1.877031 -16.070286 6.534456 2.691602 -10.541842 0.000000 0.000000 0.000000 6.345206 2.646776 -10.664562 1.163584 4.299126 -3.121155 -6.113503 18.694860 -2.004244 0.000001 0.000000 0.000001 0.658048 -1.924507 15.859503 0.000000 0.000000 0.000000 -54.937937 -45.760010 -97.271524 -0.000003 -55.535992 -0.000003 -74.975478 -26.281405 14.629531 35.234555 -17.219580 -17.236896 29.406847 28.726526 -29.411799 9.113613 14.378714 -9.922564 -0.000001 0.000001 0.000001 0.797696 3.221918 -27.804756 0.799619 3.225515 -27.838618 0.000000 -0.000001 0.000001 0.796792 3.220214 -27.788719 0.800511 3.227224 -27.854655 0.000002 0.000001 -0.000003 0.797694 3.221917 -27.804756 0.799617 3.225515 -27.838620 -0.000002 -0.000000 0.000001 2.684969 6.814117 -27.459497 0.809073 -0.835574 -28.291876 0.000002 -0.000000 -0.000002 -0.134080 -4.148864 0.057181 0.000000 0.000000 0.000000 -166.688895 117.680034 183.667543 -0.000104 69.803741 0.000127 -24.844065 1.637652 -16.745384 40.606632 -3.110552 26.124241 -37.849510 -44.264998 -46.874960 -12.282866 -22.415212 -17.633349 0.000002 -0.000000 0.000002 3.635318 -6.111015 61.464504 7.728619 -6.904475 96.464449 -0.000000 -0.000001 -0.000003 3.635323 -6.111005 61.464510 7.728617 -6.904472 96.464449 0.000001 0.000001 -0.000004 3.635317 -6.111011 61.464504 7.728623 -6.904479 96.464449 0.000002 -0.000003 0.000003 3.635320 -6.111016 61.464497 7.728619 -6.904482 96.464449 0.000000 -0.000001 0.000000 -81.218947 -9.063652 24.016031 63.045098 -8.417269 10.037272 -6.920892 -2.970405 -2.923732 0.000000 -0.000004 -0.000005 0.000000 -0.000000 -0.000000 -39.326037 -31.806309 7.939833 38.971850 -10.944007 0.943714 -9.354919 -7.672033 8.930293 -0.048206 -0.000012 -0.000001 -0.000000 -0.000000 0.000000 
2.652744 89.047539 -2.716496 20.580873 -5.539587 -26.503919 9.811261 1.839829 -15.983867 6.573777 2.667612 -10.462868 0.000000 0.000000 0.000000 6.388360 2.625518 -10.584655 2.049137 4.309124 -2.841950 -4.886938 18.949346 -1.267616 0.000000 -0.000001 -0.000002 0.564450 -1.708715 15.694791 0.000000 0.000000 0.000000 -54.281439 -46.142490 -96.841366 -0.000009 -55.447930 -0.000022 -75.196565 -25.642171 14.844989 35.234555 -17.219580 -17.236892 29.406850 28.726529 -29.411799 9.113611 14.378713 -9.922562 -0.000004 -0.000001 0.000004 0.797693 3.221917 -27.804752 0.799619 3.225515 -27.838618 0.000001 0.000000 -0.000001 0.796792 3.220213 -27.788715 0.800506 3.227225 -27.854654 0.000002 0.000001 -0.000000 0.797692 3.221915 -27.804747 0.799619 3.225515 -27.838618 0.000003 0.000000 0.000001 2.684965 6.814115 -27.459493 0.809072 -0.835574 -28.291875 0.000001 -0.000000 -0.000001 -0.081819 -3.700184 -0.513611 0.000000 0.000000 0.000000 -166.971119 117.245238 184.572311 -0.000040 69.013406 0.000059 -25.647663 2.088063 -16.706907 40.606629 -3.110554 26.124236 -37.849507 -44.264994 -46.874967 -12.282868 -22.415214 -17.633351 0.000002 -0.000000 0.000000 3.635316 -6.111013 61.464504 7.728619 -6.904480 96.464449 0.000001 -0.000002 -0.000001 3.635324 -6.111005 61.464510 7.728616 -6.904473 96.464449 -0.000002 -0.000001 0.000002 3.635317 -6.111010 61.464497 7.728623 -6.904478 96.464449 0.000001 -0.000002 0.000003 3.635318 -6.111017 61.464497 7.728621 -6.904480 96.464449 -0.000001 -0.000001 0.000001 -80.917196 -8.660689 24.337108 62.980307 -8.475210 10.041651 -6.993425 -2.759139 -2.919781 -0.000029 0.000001 0.000002 -0.000000 -0.000001 -0.000000 -39.328373 -31.421602 7.869356 38.949400 -10.942352 0.957746 -9.277197 -7.492806 8.860402 -0.047446 0.000038 0.000003 -0.000000 0.000002 0.000000 
